<svg width="30" height="30" viewBox="0 0 30 30" fill="none" xmlns="http://www.w3.org/2000/svg">
<path fill-rule="evenodd" clip-rule="evenodd" d="M9.23969 8.24512C9.23969 5.35153 11.5912 3 14.4848 3C17.3784 3 19.7299 5.35153 19.7299 8.24512C19.7299 11.1387 17.3784 13.4902 14.4848 13.4902C11.5912 13.4902 9.23969 11.1387 9.23969 8.24512ZM14.4848 4.80187C12.5864 4.80187 11.0416 6.34667 11.0416 8.24512C11.0416 10.1436 12.5864 11.6884 14.4848 11.6884C16.3832 11.6884 17.9281 10.1436 17.9281 8.24512C17.9281 6.34667 16.3832 4.80187 14.4848 4.80187Z" fill="#0099EB"/>
<path fill-rule="evenodd" clip-rule="evenodd" d="M5 18.6577C5 15.1056 8.06254 12.3153 11.7051 12.3153H17.0555C20.6981 12.3153 23.7606 15.1056 23.7606 18.6577V22.4196C23.7606 23.8892 22.4895 25 21.0683 25H7.69235C6.27113 25 5 23.8892 5 22.4196V18.6577ZM11.7051 14.1172C8.94637 14.1172 6.80187 16.2085 6.80187 18.6577V22.4196C6.80187 22.7863 7.15496 23.1982 7.69235 23.1982H21.0683C21.6056 23.1982 21.9587 22.7863 21.9587 22.4196V18.6577C21.9587 16.2085 19.8142 14.1172 17.0555 14.1172H11.7051Z" fill="#0099EB"/>
</svg>
