<svg width="66" height="66" viewBox="0 0 66 66" fill="none" xmlns="http://www.w3.org/2000/svg">
<rect width="66" height="66" rx="32" fill="#0099EB"/>
<path d="M23.082 42.7344C22.1758 41.8281 21.5742 40.832 21.2773 39.7461C20.9805 38.6523 20.9805 37.5664 21.2773 36.4883C21.582 35.4023 22.1797 34.4102 23.0703 33.5117L26.2812 30.3008C26.2031 30.6992 26.1875 31.1172 26.2344 31.5547C26.2891 31.9844 26.3945 32.3867 26.5508 32.7617L24.5352 34.8008C23.9023 35.4336 23.4805 36.1328 23.2695 36.8984C23.0586 37.6562 23.0586 38.418 23.2695 39.1836C23.4805 39.9492 23.9062 40.6523 24.5469 41.293C25.1719 41.9258 25.8672 42.3477 26.6328 42.5586C27.3984 42.7695 28.1641 42.7695 28.9297 42.5586C29.6953 42.3477 30.3945 41.9219 31.0273 41.2812L34.1328 38.1758C34.3359 37.9727 34.5117 37.7656 34.6602 37.5547C34.543 38.0391 34.4844 38.5234 34.4844 39.0078C34.4922 39.4922 34.5391 39.9648 34.625 40.4258L32.3164 42.7461C31.418 43.6523 30.4258 44.2539 29.3398 44.5508C28.2617 44.8555 27.1758 44.8555 26.082 44.5508C24.9883 44.2539 23.9883 43.6484 23.082 42.7344ZM31.6367 29.8906L33.2188 28.2969C33.8984 28.4141 34.4648 28.5938 34.918 28.8359C35.3789 29.0781 35.7812 29.3633 36.125 29.6914C37.0312 30.5977 37.6328 31.6055 37.9297 32.7148C37.5391 32.9648 37.1836 33.2539 36.8633 33.582C36.543 33.9102 36.2617 34.2656 36.0195 34.6484C36.082 34.0391 36 33.4336 35.7734 32.832C35.5547 32.2227 35.1875 31.6602 34.6719 31.1445C34.3203 30.793 33.8984 30.5117 33.4062 30.3008C32.9141 30.0898 32.3242 29.9531 31.6367 29.8906ZM29.6562 36.1367C28.75 35.2227 28.1484 34.2227 27.8516 33.1367C27.5547 32.0508 27.5547 30.9648 27.8516 29.8789C28.1562 28.793 28.7539 27.8008 29.6445 26.9023L33.4766 23.0703C34.375 22.1797 35.3633 21.582 36.4414 21.2773C37.5273 20.9727 38.6133 20.9727 39.6992 21.2773C40.793 21.5742 41.793 22.1758 42.6992 23.082C43.5117 23.9023 44.082 24.8047 44.4102 25.7891C44.7383 26.7734 44.8164 27.7617 44.6445 28.7539C44.4727 29.7383 44.0625 30.6484 43.4141 31.4844L43.1211 31.7891C42.7227 31.6953 42.2852 31.6562 41.8086 31.6719C41.332 31.6797 40.8867 31.7266 40.4727 31.8125L41.2461 31.0273C41.8789 30.3945 42.3008 29.6992 42.5117 28.9414C42.7305 28.1758 42.7344 27.4102 42.5234 26.6445C42.3125 25.8789 41.8867 25.1758 41.2461 24.5352C40.6133 23.9023 39.9141 23.4805 39.1484 23.2695C38.3828 23.0586 37.6172 23.0586 36.8516 23.2695C36.0859 23.4805 35.3906 23.9062 34.7656 24.5469L31.1094 28.1797C30.4766 28.8125 30.0547 29.5117 29.8438 30.2773C29.6328 31.043 29.6328 31.8086 29.8438 32.5742C30.0547 33.3398 30.4805 34.0391 31.1211 34.6719C31.4336 34.9922 31.8047 35.2578 32.2344 35.4688C32.6719 35.6719 33.1875 35.8242 33.7812 35.9258C33.5234 36.1914 33.2695 36.457 33.0195 36.7227C32.7695 36.9883 32.5195 37.2539 32.2695 37.5195C31.6758 37.3711 31.168 37.1797 30.7461 36.9453C30.332 36.7031 29.9688 36.4336 29.6562 36.1367ZM41.6562 44.5039C40.8828 44.5039 40.1523 44.3555 39.4648 44.0586C38.7773 43.7695 38.1719 43.3633 37.6484 42.8398C37.1328 42.3164 36.7266 41.7109 36.4297 41.0234C36.1328 40.3359 35.9844 39.6055 35.9844 38.832C35.9844 37.793 36.2422 36.8438 36.7578 35.9844C37.2734 35.125 37.957 34.4414 38.8086 33.9336C39.668 33.418 40.6172 33.1602 41.6562 33.1602C42.6875 33.1602 43.6328 33.418 44.4922 33.9336C45.3594 34.4414 46.0469 35.125 46.5547 35.9844C47.0703 36.8438 47.3281 37.793 47.3281 38.832C47.3281 39.6055 47.1758 40.332 46.8711 41.0117C46.5742 41.6992 46.1641 42.3047 45.6406 42.8281C45.1172 43.3516 44.5117 43.7617 43.8242 44.0586C43.1445 44.3555 42.4219 44.5039 41.6562 44.5039ZM41.6445 42.4062C41.8555 42.4062 42.0273 42.3398 42.1602 42.207C42.293 42.0742 42.3594 41.9023 42.3594 41.6914V39.5469H44.5039C44.7148 39.5469 44.8867 39.4844 45.0195 39.3594C45.1523 39.2266 45.2188 39.0508 45.2188 38.832C45.2188 38.6133 45.1523 38.4414 45.0195 38.3164C44.8867 38.1836 44.7148 38.1172 44.5039 38.1172H42.3594V35.9844C42.3594 35.7656 42.293 35.5898 42.1602 35.457C42.0273 35.3242 41.8555 35.2578 41.6445 35.2578C41.4258 35.2578 41.25 35.3242 41.1172 35.457C40.9844 35.5898 40.918 35.7656 40.918 35.9844V38.1172H38.7852C38.5742 38.1172 38.4023 38.1836 38.2695 38.3164C38.1367 38.4414 38.0703 38.6133 38.0703 38.832C38.0703 39.0508 38.1367 39.2266 38.2695 39.3594C38.4023 39.4844 38.5742 39.5469 38.7852 39.5469H40.918V41.6914C40.918 41.9023 40.9844 42.0742 41.1172 42.207C41.25 42.3398 41.4258 42.4062 41.6445 42.4062Z" fill="white"/>
</svg>
