<svg width="30" height="30" viewBox="0 0 30 30" fill="none" xmlns="http://www.w3.org/2000/svg">
<path d="M13.0117 22.0234C14.9688 22.0234 16.7734 21.3906 18.25 20.3359L23.8047 25.8906C24.0625 26.1484 24.4023 26.2773 24.7656 26.2773C25.5273 26.2773 26.0664 25.6914 26.0664 24.9414C26.0664 24.5898 25.9492 24.2617 25.6914 24.0039L20.1719 18.4727C21.332 16.9492 22.0234 15.0625 22.0234 13.0117C22.0234 8.05469 17.9688 4 13.0117 4C8.06641 4 4 8.04297 4 13.0117C4 17.9688 8.05469 22.0234 13.0117 22.0234ZM13.0117 20.0781C9.14453 20.0781 5.94531 16.8789 5.94531 13.0117C5.94531 9.14453 9.14453 5.94531 13.0117 5.94531C16.8789 5.94531 20.0781 9.14453 20.0781 13.0117C20.0781 16.8789 16.8789 20.0781 13.0117 20.0781Z" fill="#0099EB"/>
</svg>
