<svg width="30" height="30" viewBox="0 0 30 30" fill="none" xmlns="http://www.w3.org/2000/svg">
<path d="M5.7832 21.2988H24.2598C26.0566 21.2988 27.043 20.3125 27.043 18.5156V7.7832C27.043 5.98633 26.0566 5 24.2598 5H5.7832C3.99609 5 3 5.98633 3 7.7832V18.5156C3 20.3125 3.99609 21.2988 5.7832 21.2988ZM5.99805 19.1504C5.43164 19.1504 5.1582 18.8867 5.1582 18.3008V7.98828C5.1582 7.41211 5.43164 7.14844 5.99805 7.14844H24.0547C24.6113 7.14844 24.8945 7.41211 24.8945 7.98828V18.3008C24.8945 18.8867 24.6113 19.1504 24.0547 19.1504H5.99805ZM10.1875 24.668H19.8555C20.3926 24.668 20.8223 24.2188 20.8223 23.7109C20.8223 23.1934 20.3926 22.7441 19.8555 22.7441H10.1875C9.66016 22.7441 9.23047 23.1934 9.23047 23.7109C9.23047 24.2188 9.66016 24.668 10.1875 24.668Z" fill="#0099EB"/>
</svg>
