<svg width="31" height="30" viewBox="0 0 31 30" fill="none" xmlns="http://www.w3.org/2000/svg">
<path d="M19.9942 8.06833C20.4873 8.06833 20.902 7.65365 20.902 7.16052V4.90781C20.902 4.40347 20.4873 4 19.9942 4C19.4899 4 19.0752 4.40347 19.0752 4.90781V7.16052C19.0752 7.65365 19.4899 8.06833 19.9942 8.06833ZM13.7852 10.1193C14.1439 10.4779 14.7379 10.4667 15.0741 10.1193C15.4215 9.77187 15.4215 9.20029 15.0741 8.84165L13.4714 7.22777C13.1128 6.88033 12.5412 6.88033 12.1938 7.22777C11.8463 7.58641 11.8463 8.15799 12.1938 8.51663L13.7852 10.1193ZM24.9031 10.1193C25.2393 10.4667 25.8333 10.4779 26.192 10.1193L27.7834 8.51663C28.1421 8.1692 28.1309 7.58641 27.7834 7.23897C27.436 6.88033 26.8644 6.88033 26.517 7.23897L24.9031 8.84165C24.5557 9.20029 24.5669 9.77187 24.9031 10.1193ZM4.56146 25.5521H16.0492C19.1424 25.5521 21.5409 23.2097 21.5409 20.1949C21.5409 20.1612 21.5409 20.1276 21.5409 20.094C23.7151 19.4103 25.273 17.4154 25.273 15.0282C25.273 12.0918 22.9194 9.73825 19.9942 9.73825C17.607 9.73825 15.6121 11.2849 14.9396 13.4479C13.662 11.991 11.8688 11.1392 9.82899 11.1392C6.29863 11.1392 3.35105 13.8402 2.9812 17.3482C1.1992 17.8973 0 19.444 0 21.3829C0 23.8149 1.83803 25.5521 4.56146 25.5521ZM19.9942 11.3633C22.034 11.3633 23.6367 12.966 23.6367 15.0282C23.6367 16.6197 22.6616 17.9422 21.2607 18.4689C20.5658 16.474 18.6941 15.0842 16.3406 14.9049C16.4078 12.8988 17.9881 11.3633 19.9942 11.3633ZM4.52784 23.7589C2.73463 23.7589 1.7932 22.739 1.7932 21.4277C1.7932 20.3181 2.45445 19.3431 4.00108 18.9284C4.52784 18.7939 4.70716 18.5586 4.7632 18.0094C5.02097 15.0282 7.19523 12.9324 9.82899 12.9324C11.8576 12.9324 13.449 14.0531 14.4465 16.0257C14.6706 16.4852 14.9396 16.6421 15.4888 16.6421C18.2234 16.6421 19.7476 18.2784 19.7476 20.2397C19.7476 22.201 18.1674 23.7589 16.0716 23.7589H4.52784ZM27.8395 15.936H30.0922C30.5965 15.936 31 15.5325 31 15.0282C31 14.5239 30.5965 14.1204 30.0922 14.1204H27.8395C27.3463 14.1204 26.9317 14.5239 26.9317 15.0282C26.9317 15.5325 27.3463 15.936 27.8395 15.936ZM26.517 22.8398C26.8644 23.1873 27.436 23.1761 27.7834 22.8286C28.1309 22.4812 28.1309 21.8984 27.7834 21.551L26.1696 19.9483C25.8221 19.6121 25.2505 19.6009 24.9031 19.9483C24.5557 20.3069 24.5557 20.8897 24.9031 21.2372L26.517 22.8398Z" fill="#0099EB"/>
</svg>
